<!-- Generated by IcoMoon.io -->
<svg version="1.1" xmlns="http://www.w3.org/2000/svg" width="32" height="32" viewBox="0 0 32 32">
<title>menu</title>
<path d="M26.733 14.667h-21.466c-0.7 0-1.267 0.567-1.267 1.266v0.134c0 0.7 0.567 1.266 1.267 1.266h21.466c0.7 0 1.267-0.567 1.267-1.266v-0.134c0-0.7-0.567-1.266-1.267-1.266zM26.733 21.333h-21.466c-0.7 0-1.267 0.567-1.267 1.267v0.133c0 0.7 0.567 1.267 1.267 1.267h21.466c0.7 0 1.267-0.567 1.267-1.267v-0.133c0-0.7-0.567-1.267-1.267-1.267zM26.733 8h-21.466c-0.7 0-1.267 0.567-1.267 1.267v0.133c0 0.7 0.567 1.267 1.267 1.267h21.466c0.7 0 1.267-0.567 1.267-1.267v-0.133c0-0.7-0.567-1.267-1.267-1.267z"></path>
</svg>
