<svg aria-hidden="true" style="position: absolute; width: 0; height: 0; overflow: hidden;"
    version="1.1" xmlns="http://www.w3.org/2000/svg" xmlns:xlink="http://www.w3.org/1999/xlink">
    <defs>
        <symbol id="icon-button-arrow" viewBox="0 0 32 32">
            <path
                d="M10.587 3.272c-0.361 0.362-0.585 0.861-0.585 1.413s0.223 1.051 0.585 1.413l9.899 9.901-9.899 9.899c-0.333 0.356-0.537 0.836-0.537 1.363 0 1.105 0.895 2 2 2 0.527 0 1.007-0.204 1.365-0.538l-0.001 0.001 11.315-11.312c0.361-0.362 0.585-0.861 0.585-1.413s-0.224-1.052-0.585-1.413l-11.315-11.315c-0.362-0.361-0.861-0.585-1.413-0.585s-1.052 0.224-1.413 0.585l0-0z"></path>
        </symbol>
        <symbol id="icon-arrow" viewBox="0 0 82 32">
            <path
                d="M81.414 17.414c0.362-0.362 0.586-0.862 0.586-1.414s-0.224-1.052-0.586-1.414l-12.728-12.728c-0.364-0.377-0.874-0.611-1.439-0.611-1.105 0-2 0.895-2 2 0 0.565 0.234 1.074 0.61 1.438l0.001 0.001 11.314 11.314-11.314 11.314c-0.347 0.359-0.561 0.849-0.561 1.389 0 1.105 0.895 2 2 2 0.54 0 1.030-0.214 1.39-0.562l-0.001 0.001 12.728-12.728zM0 18h80v-4h-80v4z"></path>
        </symbol>
        <symbol id="icon-menu" viewBox="0 0 32 32">
            <path
                d="M26.733 14.667h-21.466c-0.7 0-1.267 0.567-1.267 1.266v0.134c0 0.7 0.567 1.266 1.267 1.266h21.466c0.7 0 1.267-0.567 1.267-1.266v-0.134c0-0.7-0.567-1.266-1.267-1.266zM26.733 21.333h-21.466c-0.7 0-1.267 0.567-1.267 1.267v0.133c0 0.7 0.567 1.267 1.267 1.267h21.466c0.7 0 1.267-0.567 1.267-1.267v-0.133c0-0.7-0.567-1.267-1.267-1.267zM26.733 8h-21.466c-0.7 0-1.267 0.567-1.267 1.267v0.133c0 0.7 0.567 1.267 1.267 1.267h21.466c0.7 0 1.267-0.567 1.267-1.267v-0.133c0-0.7-0.567-1.267-1.267-1.267z"></path>
        </symbol>
        <symbol id="icon-cross" viewBox="0 0 32 32">
            <path
                d="M17.253 16l7.369-7.369c0.131-0.154 0.21-0.355 0.21-0.574 0-0.491-0.398-0.889-0.889-0.889-0.22 0-0.42 0.080-0.576 0.211l0.001-0.001-7.369 7.369-7.369-7.377c-0.164-0.18-0.399-0.292-0.661-0.292-0.493 0-0.893 0.4-0.893 0.893 0 0.261 0.112 0.496 0.291 0.659l0.001 0.001 7.379 7.369-7.379 7.369c-0.193 0.164-0.315 0.407-0.315 0.679 0 0.491 0.398 0.889 0.889 0.889 0.272 0 0.515-0.122 0.678-0.314l0.001-0.001 7.379-7.369 7.368 7.369c0.154 0.131 0.355 0.21 0.574 0.21 0.491 0 0.889-0.398 0.889-0.889 0-0.22-0.080-0.42-0.211-0.576l0.001 0.001-7.368-7.369z"></path>
        </symbol>
        <symbol id="icon-cross-mob" viewBox="0 0 27 32">
            <path
                d="M14.377 13.333l6.141-6.141c0.108-0.128 0.174-0.295 0.174-0.478 0-0.409-0.332-0.741-0.741-0.741-0.183 0-0.35 0.066-0.48 0.176l0.001-0.001-6.14 6.141-6.141-6.148c-0.132-0.122-0.31-0.198-0.505-0.198-0.411 0-0.744 0.333-0.744 0.744 0 0.195 0.075 0.372 0.197 0.505l-0-0 6.148 6.141-6.147 6.14c-0.162 0.137-0.264 0.34-0.264 0.567 0 0.409 0.332 0.741 0.741 0.741 0.227 0 0.429-0.102 0.565-0.262l0.001-0.001 6.147-6.141 6.141 6.141c0.129 0.111 0.298 0.179 0.483 0.179 0.409 0 0.741-0.332 0.741-0.741 0-0.185-0.068-0.354-0.179-0.484l0.001 0.001-6.141-6.14z"></path>
        </symbol>
        <symbol id="icon-facebook" viewBox="0 0 16 32">
            <path
                d="M14.143 15.971h-4.033v14.865h-6.112v-14.865h-2.906v-5.222h2.906v-3.382c0-2.417 1.142-6.204 6.167-6.204l4.527 0.019v5.072h-3.284c-0.538 0-1.297 0.272-1.297 1.425v3.073h4.567l-0.534 5.219z"></path>
        </symbol>
        <symbol id="icon-github" viewBox="0 0 32 32">
            <path
                d="M16 0c-8.789 0-16 7.211-16 16 0 7.499 5.262 14.312 12.25 16v-5.293c-0.276 0.070-0.593 0.109-0.919 0.109-0.398 0-0.781-0.059-1.143-0.169l0.028 0.007c-0.946-0.278-1.714-0.909-2.285-1.869-0.363-0.613-1.008-1.28-1.68-1.23l-0.165-1.867c1.454-0.125 2.71 0.886 3.456 2.139 0.333 0.558 0.715 0.885 1.205 1.029 0.472 0.141 0.981 0.074 1.573-0.136 0.149-1.186 0.693-1.629 1.104-2.256-4.168-0.621-5.829-2.832-6.488-4.576-0.874-2.318-0.405-5.213 1.139-7.043 0.030-0.035 0.085-0.128 0.064-0.192-0.709-2.141 0.154-3.91 0.186-4.098 0.818 0.24 0.95-0.243 3.552 1.336l0.448 0.27c0.189 0.112 0.128 0.048 0.317 0.032 1.003-0.282 2.157-0.452 3.349-0.469l0.010-0c1.136 0.014 2.272 0.176 3.403 0.483l0.146 0.016c-0.013-0.003 0.040-0.010 0.128-0.062 3.248-1.968 3.131-1.325 4.003-1.608 0.032 0.189 0.882 1.987 0.182 4.099-0.096 0.291 2.816 2.957 1.202 7.235-0.659 1.744-2.32 3.957-6.486 4.578 0.534 0.816 1.176 1.248 1.173 2.928v6.606c6.986-1.688 12.25-8.501 12.25-16 0-8.789-7.211-16-16-16z"></path>
        </symbol>
        <symbol id="icon-telegram" viewBox="0 0 44 32">
            <path
                d="M17.342 21.048l-0.674 8.86c0.966 0 1.384-0.388 1.886-0.852l4.526-4.040 9.38 6.414c1.72 0.894 2.934 0.422 3.398-1.478l6.158-26.932c0.546-2.374-0.92-3.302-2.594-2.72l-36.196 12.934c-2.47 0.896-2.432 2.18-0.418 2.766l9.252 2.684 21.494-12.552c1.012-0.626 1.932-0.28 1.174 0.346l-17.386 14.57z"></path>
        </symbol>
        <symbol id="icon-about-btn" viewBox="0 0 22 32">
            <path d="M3.103 0.726c-0.45 0.45-0.703 1.060-0.703 1.697s0.253 1.247 0.703 1.697l11.88 11.88-11.88 11.88c-0.437 0.453-0.679 1.059-0.674 1.688s0.258 1.231 0.703 1.676 1.047 0.697 1.676 0.703c0.629 0.005 1.236-0.236 1.688-0.674l13.577-13.577c0.45-0.45 0.703-1.060 0.703-1.697s-0.253-1.247-0.703-1.697l-13.577-13.577c-0.45-0.45-1.060-0.703-1.697-0.703s-1.247 0.253-1.697 0.703z"></path>
        </symbol>
    </defs>
</svg>